<svg height='300px' width='300px'  fill="#FFFFFF" xmlns="http://www.w3.org/2000/svg" xmlns:xlink="http://www.w3.org/1999/xlink" version="1.1" x="0px" y="0px" viewBox="0 0 595.28 596" enable-background="new 0 0 595.28 596" xml:space="preserve"><path d="M461.391,200.113c1.188,0,2.184-0.994,2.184-2.183c0-5.822,0-11.645,0-17.467c0-1.188-0.995-2.184-2.184-2.184  c-109.167,0-218.334,0-327.502,0c-1.188,0-2.183,0.995-2.183,2.184c0,5.822,0,11.645,0,17.467c0,0.597,0.228,1.046,0.534,1.393  c0.04,0.046,0.068,0.097,0.113,0.143c0.046,0.04,0.097,0.073,0.148,0.107c0.341,0.319,0.784,0.54,1.387,0.54  c2.9,0,15.647-0.813,15.647,0.836c0,10.411-6.141,6.442-15.647,6.442c-1.188,0-2.183,0.995-2.183,2.184c0,5.822,0,11.645,0,17.467  c0,1.188,0.995,2.183,2.183,2.183c9.234,0,18.468,0,27.701,0c9.734,0,9.718-3.764,9.718,2.434c0,21.157,0,42.309,0,63.465  c0,22.255,0,44.509,0,66.763c0,8.62,2.774,4.89-5.044,4.89c-10.791,0-21.583,0-32.375,0c-1.188,0-2.183,0.996-2.183,2.184  c0,5.822,0,11.645,0,17.467c0,1.188,0.995,2.184,2.183,2.184c2.9,0,15.647-0.813,15.647,0.836c0,10.41-6.141,6.441-15.647,6.441  c-1.188,0-2.183,0.995-2.183,2.184c0,5.822,0,11.645,0,17.467c0,1.188,0.995,2.184,2.183,2.184c109.168,0,218.335,0,327.502,0  c1.188,0,2.184-0.995,2.184-2.184c0-5.822,0-11.645,0-17.467c0-1.188-0.995-2.184-2.184-2.184c-3.678,0-19.286,0.813-19.286-0.835  c0-10.974,9.029-6.442,19.286-6.442c1.188,0,2.184-0.995,2.184-2.184c0-5.822,0-11.645,0-17.467c0-1.188-0.995-2.184-2.184-2.184  c-9.233,0-18.467,0-27.701,0c-9.733,0-9.717,3.765-9.717-2.433c0-21.157,0-42.309,0-63.465c0-22.255,0-44.509,0-66.763  c0-8.62-2.774-4.891,5.043-4.891c10.792,0,21.584,0,32.375,0c1.188,0,2.184-0.994,2.184-2.183c0-5.822,0-11.645,0-17.467  c0-1.188-0.995-2.184-2.184-2.184c-3.678,0-19.286,0.813-19.286-0.836C442.104,195.582,451.134,200.113,461.391,200.113z   M396.982,388.609c7.761,0,15.527,0,23.289,0c0,2.428,0,4.85,0,7.277c-7.762,0-15.528,0-23.289,0  C396.982,393.458,396.982,391.037,396.982,388.609z M420.271,200.113c0,2.429,0,4.851,0,7.278c-7.762,0-15.528,0-23.289,0  c0-2.428,0-4.85,0-7.278C404.743,200.113,412.51,200.113,420.271,200.113z M375.148,388.609c0,2.428,0,4.85,0,7.277  c-7.761,0-15.527,0-23.289,0c0-2.428,0-4.85,0-7.277C359.621,388.609,367.388,388.609,375.148,388.609z M351.859,207.391  c0-2.428,0-4.85,0-7.278c7.762,0,15.528,0,23.289,0c0,2.429,0,4.851,0,7.278C367.388,207.391,359.621,207.391,351.859,207.391z   M330.026,388.609c0,2.428,0,4.85,0,7.277c-7.761,0-15.528,0-23.289,0c0-2.428,0-4.85,0-7.277  C314.498,388.609,322.266,388.609,330.026,388.609z M306.737,207.391c0-2.428,0-4.85,0-7.278c7.761,0,15.528,0,23.289,0  c0,2.429,0,4.851,0,7.278C322.266,207.391,314.498,207.391,306.737,207.391z M272.071,273.443c0-4.281,0-8.563,0-12.838  c9.022,5.634,18.052,11.258,27.075,16.897c10.32,6.437,20.646,12.879,30.965,19.32c0.785,0.489,1.398,0.87,1.894,1.172  c-2.444,1.523-4.89,3.047-7.335,4.577c-17.535,10.945-35.064,21.885-52.599,32.829C272.071,314.75,272.071,294.094,272.071,273.443z   M284.904,388.609c0,2.428,0,4.85,0,7.277c-7.762,0-15.528,0-23.289,0c0-2.428,0-4.85,0-7.277  C269.376,388.609,277.143,388.609,284.904,388.609z M284.904,207.391c-7.762,0-15.528,0-23.289,0c0-2.428,0-4.85,0-7.278  c7.761,0,15.527,0,23.289,0C284.904,202.542,284.904,204.963,284.904,207.391z M239.781,388.609c0,2.428,0,4.85,0,7.277  c-7.761,0-15.527,0-23.289,0c0-2.428,0-4.85,0-7.277C224.254,388.609,232.021,388.609,239.781,388.609z M216.492,207.391  c0-2.428,0-4.85,0-7.278c7.762,0,15.528,0,23.289,0c0,2.429,0,4.851,0,7.278C232.021,207.391,224.254,207.391,216.492,207.391z   M194.659,388.609c0,2.428,0,4.85,0,7.277c-7.762,0-15.528,0-23.289,0c0-2.428,0-4.85,0-7.277  C179.131,388.609,186.897,388.609,194.659,388.609z M194.659,207.391c-7.762,0-15.528,0-23.289,0c0-2.428,0-4.85,0-7.278  c7.761,0,15.527,0,23.289,0C194.659,202.542,194.659,204.963,194.659,207.391z"></path></svg>