<svg height='300px' width='300px'  fill="#FFFFFF" xmlns="http://www.w3.org/2000/svg" xmlns:xlink="http://www.w3.org/1999/xlink" xml:space="preserve" version="1.1" style="shape-rendering:geometricPrecision;text-rendering:geometricPrecision;image-rendering:optimizeQuality;" viewBox="0 0 333 333" x="0px" y="0px" fill-rule="evenodd" clip-rule="evenodd"><defs><style type="text/css">
   
    .fil0 {fill:#FFFFFF}
   
  </style></defs><g><g><g><g><path class="fil0" d="M191 264l-168 -126c0,0 -5,46 2,51 48,39 116,90 164,128 0,0 2,-53 2,-53z"></path><path class="fil0" d="M307 233l-119 76c0,0 1,7 1,8 1,2 118,-77 118,-77l0 -7z"></path></g><g><path class="fil0" d="M29 78l122 -62 161 113 -116 76 -167 -127zm64 0l54 -28 28 19 -53 28 -29 -19z"></path><path class="fil0" d="M195 209l-167 -126c0,0 -5,46 1,51 49,39 116,90 165,128 0,0 1,-53 1,-53z"></path><path class="fil0" d="M311 177l-119 77c0,0 1,7 2,8 0,1 117,-77 117,-77l0 -8z"></path></g></g><g><rect class="fil0" transform="matrix(1 -0.649069 -0 1 200.346 276.705)" width="33.0748" height="2.60236"></rect><polygon class="fil0" points="212,270 221,264 221,278 216,274 212,284 "></polygon></g><g><rect class="fil0" transform="matrix(1 -0.649069 -0 1 203.02 222.587)" width="33.0748" height="2.60236"></rect><polygon class="fil0" points="214,216 224,210 224,224 219,220 214,230 "></polygon></g></g></g></svg>