<svg height='300px' width='300px'  fill="#FFFFFF" xmlns="http://www.w3.org/2000/svg" xmlns:xlink="http://www.w3.org/1999/xlink" version="1.1" x="0px" y="0px" viewBox="0 0 24 24" enable-background="new 0 0 24 24" xml:space="preserve"><path d="M21,6h-7.6l2.2-2.2c0.4-0.4,0.5-1.1,0.1-1.5s-1.1-0.3-1.5,0.1L10.6,6h-0.2L6.8,2.4C6.3,1.9,5.7,1.9,5.3,2.3S4.9,3.3,5.4,3.8  L7.6,6H3C2.5,6,2,6.4,2,7v13c0,0.6,0.4,1,1,1h1v1h3v-1h10v1h3v-1h1c0.6,0,1-0.4,1-1V7C22,6.4,21.5,6,21,6z M16,19H4V8h12V19z M19,15  c-0.5,0-1-0.4-1-1c0-0.5,0.4-1,1-1c0.5,0,1,0.4,1,1C20,14.5,19.5,15,19,15z M19,11c-0.5,0-1-0.4-1-1c0-0.5,0.4-1,1-1  c0.5,0,1,0.4,1,1C20,10.5,19.5,11,19,11z"></path></svg>